<svg width="49" height="48" viewBox="0 0 49 48" fill="none" xmlns="http://www.w3.org/2000/svg">
<path d="M38.6666 4H18.6666C16.4606 4 14.6666 5.794 14.6666 8V20H10.6666C8.46063 20 6.66663 21.794 6.66663 24V42C6.66663 42.5304 6.87734 43.0391 7.25241 43.4142C7.62749 43.7893 8.13619 44 8.66663 44H40.6666C41.1971 44 41.7058 43.7893 42.0808 43.4142C42.4559 43.0391 42.6666 42.5304 42.6666 42V8C42.6666 5.794 40.8726 4 38.6666 4ZM10.6666 24H22.6666V40H10.6666V24ZM38.6666 40H26.6666V24C26.6666 21.794 24.8726 20 22.6666 20H18.6666V8H38.6666V40Z" fill="#A0CA3C"/>
<path d="M22.6666 12H26.6666V16H22.6666V12ZM30.6666 12H34.6666V16H30.6666V12ZM30.6666 20.062H34.6666V24H30.6666V20.062ZM30.6666 28H34.6666V32H30.6666V28ZM14.6666 28.002H18.6666V32.002H14.6666V28.002Z" fill="#A0CA3C"/>
</svg>
