<svg width="48" height="48" viewBox="0 0 48 48" fill="none" xmlns="http://www.w3.org/2000/svg">
<path d="M43.11 16.3361L25.11 4.33612C24.7815 4.11727 24.3957 4.00049 24.001 4.00049C23.6063 4.00049 23.2205 4.11727 22.892 4.33612L4.892 16.3361C4.6178 16.5186 4.3929 16.766 4.23729 17.0562C4.08168 17.3465 4.00017 17.6708 4 18.0001V40.0001C4 42.2061 5.794 44.0001 8 44.0001H40C42.206 44.0001 44 42.2061 44 40.0001V18.0001C44 17.3321 43.666 16.7081 43.11 16.3361ZM24 8.40412L38.394 18.0001L24 27.5961L9.606 18.0001L24 8.40412ZM8 40.0001V21.7381L22.89 31.6641C23.2187 31.8834 23.6049 32.0004 24 32.0004C24.3951 32.0004 24.7813 31.8834 25.11 31.6641L40 21.7381L39.994 40.0001H8Z" fill="#A0CA3C"/>
</svg>
