<svg width="24" height="25" viewBox="0 0 24 25" fill="none" xmlns="http://www.w3.org/2000/svg">
<path fill-rule="evenodd" clip-rule="evenodd" d="M16 3.67926H8C5.23858 3.67926 3 5.91784 3 8.67926V16.6793C3 19.4407 5.23858 21.6793 8 21.6793H16C18.7614 21.6793 21 19.4407 21 16.6793V8.67926C21 5.91784 18.7614 3.67926 16 3.67926ZM19.25 16.6793C19.2445 18.4719 17.7926 19.9238 16 19.9293H8C6.20735 19.9238 4.75549 18.4719 4.75 16.6793V8.67926C4.75549 6.88661 6.20735 5.43475 8 5.42926H16C17.7926 5.43475 19.2445 6.88661 19.25 8.67926V16.6793ZM16.75 8.92926C17.3023 8.92926 17.75 8.48154 17.75 7.92926C17.75 7.37698 17.3023 6.92926 16.75 6.92926C16.1977 6.92926 15.75 7.37698 15.75 7.92926C15.75 8.48154 16.1977 8.92926 16.75 8.92926ZM12 8.17926C9.51472 8.17926 7.5 10.194 7.5 12.6793C7.5 15.1646 9.51472 17.1793 12 17.1793C14.4853 17.1793 16.5 15.1646 16.5 12.6793C16.5027 11.485 16.0294 10.3388 15.1849 9.49434C14.3404 8.64985 13.1943 8.1766 12 8.17926ZM9.25 12.6793C9.25 14.1981 10.4812 15.4293 12 15.4293C13.5188 15.4293 14.75 14.1981 14.75 12.6793C14.75 11.1605 13.5188 9.92926 12 9.92926C10.4812 9.92926 9.25 11.1605 9.25 12.6793Z" fill="#2A2B6A"/>
</svg>
