<svg width="24" height="25" viewBox="0 0 24 25" fill="none" xmlns="http://www.w3.org/2000/svg">
<path fill-rule="evenodd" clip-rule="evenodd" d="M4.5 3.67926C3.67157 3.67926 3 4.35083 3 5.17926V20.1793C3 21.0077 3.67157 21.6793 4.5 21.6793H19.5C20.3284 21.6793 21 21.0077 21 20.1793V5.17926C21 4.35083 20.3284 3.67926 19.5 3.67926H4.5ZM8.52076 7.68198C8.52639 8.63823 7.81061 9.22745 6.96123 9.22323C6.16107 9.21901 5.46357 8.58198 5.46779 7.68339C5.47201 6.83823 6.13998 6.15901 7.00764 6.1787C7.88795 6.19839 8.52639 6.84386 8.52076 7.68198ZM12.2797 10.441H9.75971H9.7583V19.0009H12.4217V18.8012C12.4217 18.4213 12.4214 18.0413 12.4211 17.6612C12.4203 16.6474 12.4194 15.6325 12.4246 14.619C12.426 14.3729 12.4372 14.117 12.5005 13.8821C12.7381 13.0046 13.5271 12.4379 14.4074 12.5772C14.9727 12.6657 15.3467 12.9934 15.5042 13.5264C15.6013 13.8596 15.6449 14.2182 15.6491 14.5656C15.6605 15.6132 15.6589 16.6608 15.6573 17.7085C15.6567 18.0783 15.6561 18.4483 15.6561 18.8181V18.9995H18.328V18.7942C18.328 18.3422 18.3278 17.8903 18.3275 17.4384C18.327 16.3089 18.3264 15.1794 18.3294 14.0495C18.3308 13.539 18.276 13.0356 18.1508 12.542C17.9638 11.8079 17.5771 11.2004 16.9485 10.7617C16.5027 10.4495 16.0133 10.2484 15.4663 10.2259C15.404 10.2233 15.3412 10.2199 15.2781 10.2165C14.9984 10.2014 14.7141 10.186 14.4467 10.2399C13.6817 10.3932 13.0096 10.7434 12.5019 11.3607C12.4429 11.4315 12.3852 11.5034 12.2991 11.6107L12.2797 11.635V10.441ZM5.68164 19.0037H8.33242V10.4466H5.68164V19.0037Z" fill="#2A2B6A"/>
</svg>
