<svg width="48" height="48" viewBox="0 0 48 48" fill="none" xmlns="http://www.w3.org/2000/svg">
<g clip-path="url(#clip0_182_76)">
<path fill-rule="evenodd" clip-rule="evenodd" d="M31.528 8C32.6421 8.00004 33.7342 8.31027 34.6819 8.89594C35.6297 9.48161 36.3956 10.3196 36.894 11.316L39.666 16.858C40.154 16.658 40.634 16.442 41.106 16.21C41.5807 15.9729 42.1302 15.9341 42.6336 16.1021C43.1369 16.2702 43.5529 16.6313 43.79 17.106C44.0271 17.5807 44.0659 18.1302 43.8979 18.6336C43.7298 19.1369 43.3687 19.5529 42.894 19.79C42.4132 20.004 41.9299 20.212 41.444 20.414L43.366 24.26C43.7832 25.0939 44.0002 26.0136 44 26.946V32C44 32.8442 43.8218 33.6788 43.4772 34.4494C43.1326 35.22 42.6292 35.9092 42 36.472V39C42 39.7956 41.6839 40.5587 41.1213 41.1213C40.5587 41.6839 39.7957 42 39 42C38.2043 42 37.4413 41.6839 36.8787 41.1213C36.3161 40.5587 36 39.7956 36 39V38H12V39C12 39.7956 11.6839 40.5587 11.1213 41.1213C10.5587 41.6839 9.79565 42 9 42C8.20435 42 7.44129 41.6839 6.87868 41.1213C6.31607 40.5587 6 39.7956 6 39V36.472C4.772 35.372 4 33.776 4 32V26.944C4.00037 26.0129 4.21743 25.0947 4.634 24.262L6.54 20.446C6.05733 20.2433 5.58067 20.0253 5.11 19.792C4.63766 19.5518 4.27862 19.1356 4.11027 18.6332C3.94191 18.1308 3.97773 17.5823 4.21 17.106C4.32732 16.8709 4.48982 16.6611 4.68823 16.4888C4.88664 16.3165 5.11706 16.185 5.36632 16.1018C5.61558 16.0186 5.8788 15.9853 6.14093 16.0039C6.40306 16.0224 6.65896 16.0925 6.894 16.21C7.36733 16.4433 7.84733 16.6593 8.334 16.858L11.106 11.318C11.6041 10.3212 12.3699 9.48282 13.3177 8.89679C14.2655 8.31075 15.3577 8.00022 16.472 8H31.528ZM15 26C14.2044 26 13.4413 26.3161 12.8787 26.8787C12.3161 27.4413 12 28.2044 12 29C12 29.7956 12.3161 30.5587 12.8787 31.1213C13.4413 31.6839 14.2044 32 15 32C15.7956 32 16.5587 31.6839 17.1213 31.1213C17.6839 30.5587 18 29.7956 18 29C18 28.2044 17.6839 27.4413 17.1213 26.8787C16.5587 26.3161 15.7956 26 15 26ZM33 26C32.2044 26 31.4413 26.3161 30.8787 26.8787C30.3161 27.4413 30 28.2044 30 29C30 29.7956 30.3161 30.5587 30.8787 31.1213C31.4413 31.6839 32.2044 32 33 32C33.7956 32 34.5587 31.6839 35.1213 31.1213C35.6839 30.5587 36 29.7956 36 29C36 28.2044 35.6839 27.4413 35.1213 26.8787C34.5587 26.3161 33.7956 26 33 26ZM31.528 12H16.472C16.1428 12 15.8187 12.0812 15.5284 12.2364C15.2382 12.3917 14.9907 12.6162 14.808 12.89L14.684 13.106L12.144 18.182C15.24 19.11 19.412 20 24 20C28.284 20 32.202 19.224 35.22 18.366L35.854 18.182L33.316 13.106C33.1688 12.8116 32.9512 12.5581 32.6826 12.368C32.414 12.1779 32.1026 12.0569 31.776 12.016L31.53 12H31.528Z" fill="#A0CA3C"/>
</g>
<defs>
<clipPath id="clip0_182_76">
<rect width="48" height="48" fill="white"/>
</clipPath>
</defs>
</svg>
