<svg width="48" height="48" viewBox="0 0 48 48" fill="none" xmlns="http://www.w3.org/2000/svg">
<g clip-path="url(#clip0_160_62)">
<path fill-rule="evenodd" clip-rule="evenodd" d="M28.4219 35.552C29.4617 35.0322 30.6022 34.7452 31.7641 34.711C32.926 34.6768 34.0815 34.8962 35.1499 35.354L35.5779 35.554L40.8939 38.21C41.3506 38.438 41.7028 38.8319 41.8784 39.3112C42.054 39.7904 42.0398 40.3186 41.8386 40.7877C41.6374 41.2568 41.2645 41.6312 40.7963 41.8342C40.328 42.0373 39.7999 42.0537 39.3199 41.88L39.1059 41.788L33.7879 39.13C33.2892 38.8807 32.7439 38.7384 32.187 38.7122C31.6301 38.686 31.0738 38.7766 30.5539 38.978L30.2099 39.13L27.5779 40.448C26.5378 40.9678 25.3969 41.2546 24.2346 41.2885C23.0723 41.3223 21.9166 41.1024 20.8479 40.644L20.4219 40.448L17.7879 39.13C17.2893 38.8807 16.7439 38.7384 16.187 38.7122C15.6301 38.686 15.0738 38.7766 14.5539 38.978L14.2099 39.13L8.89394 41.79C8.43725 42.021 7.9094 42.068 7.41903 41.9216C6.92867 41.7751 6.5131 41.4463 6.25787 41.0027C6.00264 40.5591 5.92716 40.0346 6.04697 39.537C6.16678 39.0395 6.47277 38.6068 6.90194 38.328L7.10594 38.21L12.4219 35.552C13.4617 35.0322 14.6022 34.7452 15.7641 34.711C16.926 34.6768 18.0815 34.8962 19.1499 35.354L19.5779 35.554L22.2099 36.87C22.7089 37.1196 23.2546 37.2621 23.8119 37.2883C24.3692 37.3144 24.9258 37.2237 25.4459 37.022L25.7879 36.87L28.4219 35.552ZM25.9999 4C26.5304 4 27.0391 4.21071 27.4142 4.58579C27.7892 4.96086 27.9999 5.46957 27.9999 6V8.64L34.6579 9.748C35.5916 9.90419 36.4395 10.3864 37.0511 11.1089C37.6626 11.8314 37.9981 12.7474 37.9979 13.694V20.558L42.1179 21.93C42.4461 22.0395 42.7479 22.2158 43.0044 22.4479C43.2608 22.6801 43.4664 22.9629 43.6079 23.2785C43.7495 23.5941 43.824 23.9357 43.8267 24.2816C43.8295 24.6275 43.7604 24.9702 43.6239 25.288L39.2859 35.408L35.5779 33.552C34.467 32.9965 33.242 32.7073 31.9999 32.7073C30.7579 32.7073 29.5329 32.9965 28.4219 33.552L25.7879 34.87C25.2325 35.1478 24.62 35.2924 23.9989 35.2924C23.3779 35.2924 22.7654 35.1478 22.2099 34.87L19.5779 33.552C18.467 32.9965 17.242 32.7073 15.9999 32.7073C14.7579 32.7073 13.5329 32.9965 12.4219 33.552L9.88194 34.824L4.56594 25.522C4.38244 25.2009 4.27248 24.843 4.244 24.4742C4.21551 24.1055 4.26921 23.735 4.40121 23.3894C4.53322 23.0439 4.74025 22.732 5.00737 22.4762C5.27449 22.2203 5.59506 22.027 5.94594 21.91L9.99994 20.558V13.694C9.99975 12.7474 10.3353 11.8314 10.9468 11.1089C11.5584 10.3864 12.4063 9.90419 13.3399 9.748L19.9999 8.64V6C19.9999 5.46957 20.2107 4.96086 20.5857 4.58579C20.9608 4.21071 21.4695 4 21.9999 4H25.9999ZM23.9999 12.028L13.9999 13.694V19.226L22.7339 16.314C23.5551 16.0403 24.4428 16.0403 25.2639 16.314L33.9999 19.226V13.694L23.9999 12.028Z" fill="#A0CA3C"/>
</g>
<defs>
<clipPath id="clip0_160_62">
<rect width="48" height="48" fill="white"/>
</clipPath>
</defs>
</svg>
