<svg width="43" height="39" viewBox="0 0 43 39" fill="none" xmlns="http://www.w3.org/2000/svg">
<path d="M39.361 4.6042C38.5116 1.42283 35.2409 -0.462141 32.0595 0.387216L30.9121 0.692686C29.6381 1.03541 28.8856 2.3467 29.2283 3.61328L31.0537 10.423L22.9848 12.5166L22.5154 11.1681C22.1801 10.2144 21.2786 9.57368 20.2654 9.57368C19.2521 9.57368 18.3506 10.2144 18.0153 11.1681L17.002 14.0738L7.15248 16.6219V13.746C7.15248 12.755 6.35528 11.9578 5.36436 11.9578C4.37344 11.9578 3.57624 12.755 3.57624 13.746V33.4153H2.38416C1.06542 33.4153 0 34.4807 0 35.7994C0 37.1182 1.06542 38.1836 2.38416 38.1836H40.5307C41.8495 38.1836 42.9149 37.1182 42.9149 35.7994C42.9149 34.4807 41.8495 33.4153 40.5307 33.4153H30.3012L25.3317 19.2221L20.6975 20.4216L22.7464 26.2628H17.7843L19.7438 20.6749L14.1858 22.1129L10.2295 33.4153H7.15248V21.5541L32.2905 15.0349L34.168 22.0384C34.5107 23.3124 35.8145 24.0649 37.0886 23.7222L38.2434 23.4167C41.4248 22.5673 43.3098 19.2966 42.4604 16.1152L39.361 4.6042ZM15.281 33.4153L16.1154 31.0311H24.4153L25.2497 33.4153H15.281Z" fill="#A0CA3C"/>
</svg>
