<svg width="49" height="48" viewBox="0 0 49 48" fill="none" xmlns="http://www.w3.org/2000/svg">
<path d="M35.7476 24.5859C35.562 24.4 35.3416 24.2525 35.0989 24.1519C34.8563 24.0513 34.5962 23.9995 34.3336 23.9995C34.0709 23.9995 33.8108 24.0513 33.5682 24.1519C33.3255 24.2525 33.1051 24.4 32.9196 24.5859L29.7316 27.7739C28.2536 27.3339 25.4956 26.3339 23.7476 24.5859C21.9996 22.8379 20.9996 20.0799 20.5596 18.6019L23.7476 15.4139C23.9334 15.2283 24.0809 15.0079 24.1815 14.7653C24.2822 14.5227 24.334 14.2626 24.334 13.9999C24.334 13.7372 24.2822 13.4772 24.1815 13.2345C24.0809 12.9919 23.9334 12.7715 23.7476 12.5859L15.7476 4.58591C15.562 4.40002 15.3416 4.25255 15.0989 4.15193C14.8563 4.0513 14.5962 3.99951 14.3336 3.99951C14.0709 3.99951 13.8108 4.0513 13.5682 4.15193C13.3255 4.25255 13.1051 4.40002 12.9196 4.58591L7.49555 10.0099C6.73555 10.7699 6.30755 11.8139 6.32355 12.8799C6.36955 15.7279 7.12355 25.6199 14.9196 33.4159C22.7156 41.2119 32.6076 41.9639 35.4576 42.0119H35.5136C36.5696 42.0119 37.5676 41.5959 38.3236 40.8399L43.7476 35.4159C43.9334 35.2303 44.0809 35.0099 44.1815 34.7673C44.2822 34.5247 44.334 34.2646 44.334 34.0019C44.334 33.7392 44.2822 33.4792 44.1815 33.2365C44.0809 32.9939 43.9334 32.7735 43.7476 32.5879L35.7476 24.5859ZM35.4936 38.0099C32.9976 37.9679 24.4576 37.2979 17.7476 30.5859C11.0156 23.8539 10.3636 15.2839 10.3236 12.8379L14.3336 8.82791L19.5056 13.9999L16.9196 16.5859C16.6845 16.8208 16.5116 17.1106 16.4167 17.4291C16.3217 17.7475 16.3076 18.0846 16.3756 18.4099C16.4236 18.6399 17.5976 24.0939 20.9176 27.4139C24.2376 30.7339 29.6916 31.9079 29.9216 31.9559C30.2466 32.0258 30.5841 32.0128 30.9028 31.9181C31.2216 31.8234 31.5114 31.65 31.7456 31.4139L34.3336 28.8279L39.5056 33.9999L35.4936 38.0099Z" fill="#A0CA3C"/>
</svg>
