<svg width="44" height="32" viewBox="0 0 44 32" fill="none" xmlns="http://www.w3.org/2000/svg">
<path d="M38 8H28V20H2V26H4C4 29.4 6.6 32 10 32C13.4 32 16 29.4 16 26H28C28 29.4 30.6 32 34 32C37.4 32 40 29.4 40 26H44V16L38 8ZM10 29C8.4 29 7 27.6 7 26C7 24.4 8.4 23 10 23C11.6 23 13 24.4 13 26C13 27.6 11.6 29 10 29ZM34 29C32.4 29 31 27.6 31 26C31 24.4 32.4 23 34 23C35.6 23 37 24.4 37 26C37 27.6 35.6 29 34 29ZM32 16V11H37L41 16H32ZM26 11C26 14.8 22.8 18 19 18H7C3.2 18 0 14.8 0 11C0 7.2 3.2 4 7 4H8V2H6V0H14V2H12V4H19C22.8 4 26 7.2 26 11Z" fill="#A0CA3C"/>
</svg>
